<?xml version="1.0" encoding="UTF-8"?>
<svg width="20px" height="20px" viewBox="0 0 20 20" version="1.1" xmlns="http://www.w3.org/2000/svg" xmlns:xlink="http://www.w3.org/1999/xlink">
    <title>validation</title>
    <g id="控件" stroke="none" stroke-width="1" fill="none" fill-rule="evenodd">
        <g id="input/small/error" transform="translate(-305.000000, -26.000000)" fill="#FC5D65">
            <g id="icon-/-validation-/-error" transform="translate(303.000000, 24.000000)">
                <g id="Group-2" transform="translate(2.526316, 2.526316)">
                    <g id="general/error/dark" fill-rule="nonzero">
                        <path d="M9.47368421,17.6555024 C13.9923776,17.6555024 17.6555024,13.9923776 17.6555024,9.47368421 C17.6555024,4.9549908 13.9923776,1.29186603 9.47368421,1.29186603 C4.9549908,1.29186603 1.29186603,4.9549908 1.29186603,9.47368421 C1.29186603,13.9923776 4.9549908,17.6555024 9.47368421,17.6555024 Z M9.47368421,18.9473684 C4.2415129,18.9473684 0,14.7058555 0,9.47368421 C0,4.2415129 4.2415129,0 9.47368421,0 C14.7058555,0 18.9473684,4.2415129 18.9473684,9.47368421 C18.9473684,14.7058555 14.7058555,18.9473684 9.47368421,18.9473684 Z" id="Oval"></path>
                        <path d="M9.47368421,12.0574163 C9.94933615,12.0574163 10.3349282,12.4430083 10.3349282,12.9186603 C10.3349282,13.3943122 9.94933615,13.7799043 9.47368421,13.7799043 C8.99803227,13.7799043 8.61244019,13.3943122 8.61244019,12.9186603 C8.61244019,12.4430083 8.99803227,12.0574163 9.47368421,12.0574163 Z M9.47368421,5.16746411 C9.9493362,5.16746411 10.3349282,5.5346946 10.3349282,5.98769648 L10.3349282,9.90430622 C10.3349282,10.3573081 9.9493362,10.7245387 9.47368421,10.7245387 C8.99803222,10.7245387 8.61244019,10.3573081 8.61244019,9.90430622 L8.61244019,5.98769648 C8.61244019,5.5346946 8.99803222,5.16746411 9.47368421,5.16746411 Z" id="Fo_Error_ico"></path>
                    </g>
                </g>
            </g>
        </g>
    </g>
</svg>