<?xml version="1.0" encoding="UTF-8"?>
<svg width="48px" height="48px" viewBox="0 0 48 48" version="1.1" xmlns="http://www.w3.org/2000/svg" xmlns:xlink="http://www.w3.org/1999/xlink">
    <title>ðŸ’Žicon/time</title>
    <g id="ðŸ’Žicon/time" stroke="none" stroke-width="1" fill="none" fill-rule="evenodd">
        <path d="M24,4 C35.045694,4 44,12.954304 44,24 C44,35.045694 35.045694,44 24,44 C12.954304,44 4,35.045694 4,24 C4,12.954304 12.954304,4 24,4 Z M24,8 C15.163444,8 8,15.163444 8,24 C8,32.836556 15.163444,40 24,40 C32.836556,40 40,32.836556 40,24 C40,15.163444 32.836556,8 24,8 Z M26,11.99997 L26,22.86759 L35.028992,28.284982 L32.971008,31.714956 L22,25.13235 L22,11.99997 L26,11.99997 Z" id="å½¢çŠ¶ç»“åˆ" fill="#000" fill-rule="nonzero"></path>
    </g>
</svg>