<?xml version="1.0" encoding="UTF-8"?>
<svg width="48px" height="48px" viewBox="0 0 48 48" version="1.1" xmlns="http://www.w3.org/2000/svg" xmlns:xlink="http://www.w3.org/1999/xlink">
    <title>ðŸ’Žicon/confirm</title>
    <g id="ðŸ’Žicon/confirm" stroke="none" stroke-width="1" fill="none" fill-rule="evenodd">
        <path d="M24,4 C35.045696,4 44,12.954304 44,24 C44,35.045694 35.045696,44 24,44 C12.954306,44 4,35.045694 4,24 C4,12.954304 12.954306,4 24,4 Z M24,8 C15.163444,8 8,15.163444 8,24 C8,32.836556 15.163444,40 24,40 C32.836556,40 40,32.836556 40,24 C40,15.163444 32.836556,8 24,8 Z M32,16.00003 L34.828426,18.828458 L21.414214,32.24267 L14,24.828458 L16.828428,22.00003 L21.414214,26.585818 L32,16.00003 Z" id="å½¢çŠ¶ç»“åˆ" fill="#000" fill-rule="nonzero"></path>
    </g>
</svg>