<?xml version="1.0" encoding="UTF-8"?>
<svg width="24px" height="24px" viewBox="0 0 24 24" version="1.1" xmlns="http://www.w3.org/2000/svg" xmlns:xlink="http://www.w3.org/1999/xlink">
    <!-- Generator: Sketch 57.1 (83088) - https://sketch.com -->
    <title>Icons / 收益</title>
    <desc>Created with Sketch.</desc>
    <g id="Icons-/-收益" stroke="none" stroke-width="1" fill="none" fill-rule="evenodd">
        <g id="编组-2" transform="translate(4.000000, 4.000000)">
            <g id="ckecklist" fill-rule="nonzero">
                <rect id="Rectangle-path" fill="#FFFFFF" opacity="0" x="0" y="0" width="17" height="17"></rect>
                <path d="M11.9,1.7 L11.9,0 L5.1,0 L5.1,1.7 L1.7,1.7 L1.7,17 L15.3,17 L15.3,1.7 L11.9,1.7 Z M6.8,1.7 L10.2,1.7 L10.2,3.4 L6.8,3.4 L6.8,1.7 Z M13.6,15.3 L3.4,15.3 L3.4,3.4 L5.1,3.4 L5.1,5.1 L11.9,5.1 L11.9,3.4 L13.6,3.4 L13.6,15.3 Z" id="Shape" fill="#222222"></path>
            </g>
            <g id="编组" transform="translate(5.950000, 6.212044)" fill="#222222">
                <rect id="矩形" x="0" y="2.55" width="5.1" height="1.275"></rect>
                <rect id="矩形备份" x="0" y="4.40985161" width="5.1" height="1.275"></rect>
                <polygon id="矩形备份" transform="translate(2.550000, 4.856923) rotate(-90.000000) translate(-2.550000, -4.856923) " points="0.243076604 4.2194234 4.8569234 4.2194234 4.8569234 5.4944234 0.243076604 5.4944234"></polygon>
                <polygon id="矩形备份-2" transform="translate(1.376993, 1.808350) rotate(-120.000000) translate(-1.376993, -1.808350) " points="0.13516289 1.17084993 2.61882411 1.17084993 2.61882411 2.44584993 0.13516289 2.44584993"></polygon>
                <polygon id="矩形备份-3" transform="translate(3.723007, 1.808350) scale(-1, 1) rotate(-120.000000) translate(-3.723007, -1.808350) " points="2.48117589 1.17084993 4.96483711 1.17084993 4.96483711 2.44584993 2.48117589 2.44584993"></polygon>
            </g>
        </g>
    </g>
</svg>