<?xml version="1.0" encoding="UTF-8"?>
<svg width="48px" height="48px" viewBox="0 0 48 48" version="1.1" xmlns="http://www.w3.org/2000/svg" xmlns:xlink="http://www.w3.org/1999/xlink">
    <title>ðŸ’Žicon/SC/clipboardcurrency@1x</title>
    <g id="ðŸ’Žicon/SC/clipboardcurrency" stroke="none" stroke-width="1" fill="none" fill-rule="evenodd">
        <path d="M32,2 L32,6 L40,6 L40,46 L8,46 L8,14 C8,9.58172 11.5817,6 16,6 L16,2 L32,2 Z M36,10 L32,10 L32,14 L16,14 L16,10 C13.7909,10 12,11.79086 12,14 L12,42 L36,42 L36,10 Z M27,18 L29.6008,19.598 L28.314,21.987 L30,21.9879 L30,25.9914 L25.999,25.991 L25.999,27.993 L30,27.9931 L30,31.9966 L25.999,31.996 L26,36 L22,36 L21.999,31.996 L18,31.9966 L18,27.9931 L21.999,27.993 L21.999,25.991 L18,25.9914 L18,21.9879 L19.685,21.987 L18.3992,19.598 L21,18 L23.144,21.987 L24.855,21.987 L27,18 Z M28,6 L20,6 L20,10 L28,10 L28,6 Z" id="å½¢çŠ¶ç»“åˆ" fill="#222222" fill-rule="nonzero"></path>
    </g>
</svg>