<svg width="20" height="20" viewBox="0 0 20 20" fill="none" xmlns="http://www.w3.org/2000/svg">
<path fill-rule="evenodd" clip-rule="evenodd" d="M16.6666 10.0001C16.6666 13.682 13.6819 16.6667 9.99996 16.6667C6.31806 16.6667 3.33329 13.682 3.33329 10.0001C3.33329 6.31818 6.31806 3.33341 9.99996 3.33341C13.6819 3.33341 16.6666 6.31818 16.6666 10.0001ZM18.3333 10.0001C18.3333 14.6025 14.6023 18.3334 9.99996 18.3334C5.39759 18.3334 1.66663 14.6025 1.66663 10.0001C1.66663 5.39771 5.39759 1.66675 9.99996 1.66675C14.6023 1.66675 18.3333 5.39771 18.3333 10.0001ZM9.99996 15.0001C10.4602 15.0001 10.8333 14.627 10.8333 14.1667C10.8333 13.7065 10.4602 13.3334 9.99996 13.3334C9.53972 13.3334 9.16663 13.7065 9.16663 14.1667C9.16663 14.627 9.53972 15.0001 9.99996 15.0001ZM11.6666 8.33341C11.6666 9.25389 10.9204 10.0001 9.99996 10.0001H9.16663V12.5001H10.8333V11.5617C12.271 11.1917 13.3333 9.88661 13.3333 8.33341C13.3333 6.49247 11.8409 5.00008 9.99996 5.00008C8.15901 5.00008 6.66663 6.49247 6.66663 8.33341H8.33329C8.33329 7.41294 9.07948 6.66675 9.99996 6.66675C10.9204 6.66675 11.6666 7.41294 11.6666 8.33341Z" fill="#222222"/>
</svg>
